<svg width="1204" height="1112" viewBox="0 0 1204 1112" fill="none" xmlns="http://www.w3.org/2000/svg">
<path d="M815.42 923.44V1058.88C815.42 1087.69 792.06 1111.05 763.25 1111.05H440.31C411.5 1111.05 388.14 1087.69 388.14 1058.88V922.83C388.14 904.1 398.19 886.82 414.46 877.53C492.7 832.82 555.91 783.61 601.52 731.67C601.62 731.58 601.72 731.47 601.78 731.37V731.97C647.41 784.02 710.72 833.34 789.11 878.15C805.37 887.44 815.42 904.72 815.42 923.45V923.44Z" fill="#ffffff"/>
<path d="M1203.57 437.05V766.52C1203.57 793.53 1181.68 815.42 1154.67 815.42H956.21C839.74 815.42 730.57 757.02 667.39 659.18C666.17 657.28 664.96 655.38 663.76 653.48C653.09 636.47 643.71 619.22 635.69 601.78C617.21 561.65 605.77 520.53 601.99 479.33C601.99 479.3 602.03 479.36 601.99 479.33C601.94 480.06 601.86 480.79 601.78 481.52C597.82 522 586.51 562.34 568.34 601.78C560.19 619.48 550.67 636.99 539.78 654.25C538.65 656.04 537.51 657.83 536.36 659.62C473.2 757.26 364.12 815.42 247.83 815.42H48.9C21.89 815.42 0 793.53 0 766.52V437.05C0 410.04 21.89 388.15 48.9 388.15H339.24C366.25 388.15 388.14 366.26 388.14 339.25V48.9C388.14 21.89 410.03 0 437.04 0H766.51C793.52 0 815.41 21.89 815.41 48.9V339.24C815.41 366.25 837.3 388.14 864.31 388.14H1154.65C1181.66 388.14 1203.55 410.03 1203.55 437.04L1203.57 437.05Z" fill="#ffffff"/>
</svg>
